# xmcd
#
# Track frame offsets:
#	150
#	16348
#	32849
#	56665
#	74508
#	95444
#	112142
#	129233
#	147623
#	168954
#	188253
#	208636
#	226037
#	246396
#
# Disc length: 3597 seconds
#
# Revision: 1
# Processed by: cddbd v1.5.2PL0 Copyright (c) Steve Scherf et al.
# Submitted via: EasyCDDAExtractor 15.3.0.1
#
DISCID=c20e0b0e
DTITLE=Rocio Jurado - Mis Favoritas
DYEAR=2011
DGENRE=Latin
TTITLE0=Señora
TTITLE1=Ese Hombre
TTITLE2=Si Amanece
TTITLE3=Mi Amante Amigo
TTITLE4=Como Yo Te Amo
TTITLE5=Soy Como Soy (Basado En ''La Boheme'' De G. Puccini)
TTITLE6=Lo Siento Mi Amor
TTITLE7=Paloma Negra (Con El Mariachi De America De J. Rodriguez De Hijar)
TTITLE8=Amor Callado (Duo Con Ana Gabriel)
TTITLE9=Como Una Ola
TTITLE10=Quisiera Morir Contigo
TTITLE11=Por Que Me Habras Besado (Duo Con Juan Pardo)
TTITLE12=Virgen De Regla
TTITLE13=Como Las Alas Al Viento
EXTD=
EXTT0=
EXTT1=
EXTT2=
EXTT3=
EXTT4=
EXTT5=
EXTT6=
EXTT7=
EXTT8=
EXTT9=
EXTT10=
EXTT11=
EXTT12=
EXTT13=
PLAYORDER=
